<?xml version="1.0" encoding="UTF-8"?>
<svg version="1.1" xmlns="http://www.w3.org/2000/svg" width="313" height="212">
<path d="M0 0 C6.6 0 13.2 0 20 0 C23.44822597 10.85224389 26.38192428 21.79553033 29.25 32.8125 C30.8175 38.814375 32.385 44.81625 34 51 C34.33 34.17 34.66 17.34 35 0 C39.95 0 44.9 0 50 0 C50 32.67 50 65.34 50 99 C44.39 99 38.78 99 33 99 C30.20644086 92.05910876 28.30228299 84.98650025 26.42578125 77.75 C26.13392944 76.63753906 25.84207764 75.52507812 25.54138184 74.37890625 C24.46048349 70.25380791 23.38691791 66.12679097 22.3125 62 C19.899375 52.76 17.48625 43.52 15 34 C14.67 55.45 14.34 76.9 14 99 C9.38 99 4.76 99 0 99 C0 66.33 0 33.66 0 0 Z " fill="#000000" transform="translate(167,4)"/>
<path d="M0 0 C7.92 0 15.84 0 24 0 C26.25005594 9.00022375 26.25005594 9.00022375 26.77200317 12.28266907 C26.89255066 13.02977646 27.01309814 13.77688385 27.13729858 14.54663086 C27.26101837 15.33602051 27.38473816 16.12541016 27.51220703 16.9387207 C27.64904907 17.79338425 27.78589111 18.64804779 27.92687988 19.52861023 C28.37400994 22.32712462 28.81604356 25.12641598 29.2578125 27.92578125 C29.56859462 29.88018085 29.87962341 31.83454123 30.19088745 33.78886414 C30.84026524 37.87101788 31.48721286 41.95354685 32.13232422 46.03637695 C32.95999388 51.27382729 33.79290162 56.51042805 34.62750435 61.74677753 C35.26924585 65.77585343 35.90866442 69.80529517 36.54732895 73.83485985 C36.85371993 75.76670327 37.16073705 77.69844748 37.4683876 79.63009071 C37.8967529 82.32245315 38.32209494 85.01527572 38.74658203 87.70825195 C38.93823441 88.90751816 38.93823441 88.90751816 39.13375854 90.13101196 C39.60255171 93.12148914 40 95.96765059 40 99 C34.39 99 28.78 99 23 99 C21.89564083 92.78797966 21 87.32519167 21 81 C14.73 81 8.46 81 2 81 C1.855625 83.2275 1.71125 85.455 1.5625 87.75 C1.30659027 91.69832148 0.96186931 95.15252277 0 99 C-4.95 99 -9.9 99 -15 99 C-14.31070219 88.57119898 -12.75263128 78.37362634 -11.09375 68.06640625 C-10.80575407 66.25713187 -10.51812218 64.44779952 -10.23083496 62.63841248 C-9.63164763 58.87024653 -9.02964777 55.10254565 -8.42529297 51.33520508 C-7.65153856 46.5118395 -6.88251724 41.68773533 -6.11528778 36.86332798 C-5.38042166 32.24328454 -4.64352175 27.62356632 -3.90625 23.00390625 C-3.76648239 22.12743502 -3.62671478 21.25096378 -3.48271179 20.34793282 C-3.0865837 17.86662394 -2.68904517 15.3855455 -2.29101562 12.90454102 C-2.17462234 12.17460938 -2.05822906 11.44467773 -1.93830872 10.69262695 C-1.36165957 7.10817967 -0.71238284 3.56191421 0 0 Z M11 20 C10.13994685 25.72835047 9.28562392 31.45751578 8.43652344 37.1875 C8.14706956 39.13532387 7.85607069 41.08291881 7.56347656 43.03027344 C7.14238387 45.8346935 6.7269144 48.63989878 6.3125 51.4453125 C6.18125732 52.31116974 6.05001465 53.17702698 5.91479492 54.06912231 C5.79467041 54.88951996 5.6745459 55.7099176 5.55078125 56.55517578 C5.44419189 57.27021271 5.33760254 57.98524963 5.2277832 58.72195435 C4.95313934 61.46865058 5 64.23960701 5 67 C9.29 67 13.58 67 18 67 C17.28895537 56.83287915 15.91592562 46.82633993 14.4375 36.75 C14.20084222 35.11853737 13.96451182 33.48702721 13.72851562 31.85546875 C13.15610992 27.90308876 12.57930094 23.95137499 12 20 C11.67 20 11.34 20 11 20 Z " fill="#000000" transform="translate(160,109)"/>
<path d="M0 0 C5.61 0 11.22 0 17 0 C18.13944978 7.58115785 19.27846072 15.16238139 20.41673851 22.74371529 C20.94553053 26.26554391 21.47450095 29.78734554 22.00390625 33.30908203 C22.51658357 36.71958757 23.02875682 40.13016849 23.54060745 43.54079819 C23.82713974 45.44921594 24.1141693 47.357559 24.4012146 49.26589966 C24.58125031 50.46608734 24.76128601 51.66627502 24.94677734 52.90283203 C25.10222015 53.93763702 25.25766296 54.97244202 25.41781616 56.03860474 C26.29731012 62.0230086 27.14458666 68.01210661 28 74 C31.63 49.58 35.26 25.16 39 0 C44.28 0 49.56 0 55 0 C51.5199446 24.21026775 47.88666278 48.39450882 44.125 72.5625 C44.02251575 73.22095665 43.92003151 73.8794133 43.81444168 74.55782318 C42.54599661 82.70569239 41.27342553 90.85290645 40 99 C31.75 99 23.5 99 15 99 C6.16760863 43.23816913 6.16760863 43.23816913 2.82403564 21.62210083 C2.56712024 19.96237374 2.30943444 18.30276572 2.05096436 16.64328003 C1.69706681 14.36930187 1.34610011 12.09489236 0.99609375 9.8203125 C0.80200928 8.56492676 0.6079248 7.30954102 0.40795898 6.01611328 C0 3 0 3 0 0 Z " fill="#000000" transform="translate(53,4)"/>
<path d="M0 0 C32 0 32 0 40 4 C46.90586261 10.90586261 47.27117084 17.44579105 47.32226562 26.80078125 C47.31900269 27.8055249 47.31900269 27.8055249 47.31567383 28.83056641 C47.31251886 30.86285326 47.33599443 32.89367433 47.36132812 34.92578125 C47.36873107 49.86492253 47.36873107 49.86492253 42.3515625 56.0234375 C41.78179687 56.46945313 41.21203125 56.91546875 40.625 57.375 C40.06039062 57.83648437 39.49578125 58.29796875 38.9140625 58.7734375 C31.33010947 63.63335842 27.16883124 62 17 62 C17 74.21 17 86.42 17 99 C11.39 99 5.78 99 0 99 C0 66.33 0 33.66 0 0 Z M17 15 C17 25.56 17 36.12 17 47 C27.06498024 48.17716134 27.06498024 48.17716134 30.1640625 45.1875 C31.4101652 40.43600561 31.43263292 35.89239446 31.375 31 C31.38660156 30.01515625 31.39820313 29.0303125 31.41015625 28.015625 C31.39425976 24.09449137 31.16051342 20.61205118 30.1640625 16.8125 C27.06498024 13.82283866 27.06498024 13.82283866 17 15 Z " fill="#000000" transform="translate(260,109)"/>
<path d="M0 0 C33.375 0 33.375 0 41.8125 6 C49.44325894 16.46504083 47.92250169 32.41711665 46.6015625 44.70703125 C45.36792768 51.07547074 43.23381041 54.67452591 38.1328125 58.6953125 C30.26445331 63.50855787 26.60548216 62 16 62 C16 74.21 16 86.42 16 99 C10.72 99 5.44 99 0 99 C0 66.33 0 33.66 0 0 Z M16 15 C16 25.56 16 36.12 16 47 C19.63 47 23.26 47 27 47 C30.08349375 42.888675 30.38161051 42.26924891 30.3984375 37.5 C30.40230469 36.448125 30.40617187 35.39625 30.41015625 34.3125 C30.39855469 33.219375 30.38695312 32.12625 30.375 31 C30.38660156 29.906875 30.39820313 28.81375 30.41015625 27.6875 C30.40628906 26.635625 30.40242188 25.58375 30.3984375 24.5 C30.39505371 23.5409375 30.39166992 22.581875 30.38818359 21.59375 C30.1389198 18.5255304 30.1389198 18.5255304 27 15 C23.37 15 19.74 15 16 15 Z " fill="#000000" transform="translate(207,109)"/>
<path d="M0 0 C14.52 0 29.04 0 44 0 C44 4.95 44 9.9 44 15 C35.09 15 26.18 15 17 15 C17 23.58 17 32.16 17 41 C23.93 41 30.86 41 38 41 C38 45.95 38 50.9 38 56 C31.07 56 24.14 56 17 56 C17 65.24 17 74.48 17 84 C25.91 84 34.82 84 44 84 C44 88.95 44 93.9 44 99 C29.48 99 14.96 99 0 99 C0 66.33 0 33.66 0 0 Z " fill="#000000" transform="translate(114,4)"/>
<path d="M0 0 C14.19 0 28.38 0 43 0 C43 4.95 43 9.9 43 15 C34.09 15 25.18 15 16 15 C16 23.58 16 32.16 16 41 C22.86612807 40.96041531 22.86612807 40.96041531 29.73217773 40.90991211 C30.58239502 40.90741455 31.4326123 40.90491699 32.30859375 40.90234375 C33.18314209 40.89710693 34.05769043 40.89187012 34.95874023 40.88647461 C37 41 37 41 38 42 C38.14426614 46.66845228 38.04208415 51.32865953 38 56 C30.74 56 23.48 56 16 56 C16 65.24 16 74.48 16 84 C24.91 84 33.82 84 43 84 C43 88.95 43 93.9 43 99 C28.81 99 14.62 99 0 99 C0 66.33 0 33.66 0 0 Z " fill="#000000" transform="translate(5,4)"/>
<path d="M0 0 C16.17 0 32.34 0 49 0 C49 4.95 49 9.9 49 15 C43.72 15 38.44 15 33 15 C33 42.72 33 70.44 33 99 C27.39 99 21.78 99 16 99 C16 71.28 16 43.56 16 15 C10.72 15 5.44 15 0 15 C0 10.05 0 5.1 0 0 Z " fill="#000000" transform="translate(223,4)"/>
</svg>
